#define logo_width 128
#define logo_height 128
static unsigned char logo_bits[] = {
   0x00, 0x00, 0x00, 0x00, 0x00, 0x00, 0x00, 0x00, 0x00, 0x00, 0x00, 0x00,
   0x00, 0x00, 0x00, 0x00, 0x00, 0x00, 0x00, 0x00, 0x00, 0x00, 0x00, 0x00,
   0x00, 0x00, 0x00, 0x00, 0x00, 0x00, 0x00, 0x00, 0x00, 0x00, 0x00, 0x00,
   0x00, 0x00, 0x00, 0x00, 0x00, 0x00, 0x00, 0x00, 0x00, 0x00, 0x00, 0x00,
   0x00, 0x00, 0x00, 0x00, 0x00, 0x00, 0x00, 0x00, 0x00, 0x00, 0x00, 0x00,
   0x00, 0x00, 0x00, 0x00, 0x00, 0x00, 0x00, 0x00, 0x00, 0x00, 0x00, 0x00,
   0x00, 0x00, 0x00, 0x00, 0x00, 0x00, 0x00, 0x00, 0x00, 0x00, 0x00, 0x00,
   0x00, 0x00, 0x00, 0x00, 0x00, 0x00, 0x00, 0x00, 0x00, 0x00, 0x00, 0x00,
   0x00, 0x00, 0x00, 0x00, 0x00, 0x00, 0x00, 0x00, 0x00, 0x00, 0x00, 0x00,
   0x00, 0x00, 0x00, 0x00, 0x00, 0x00, 0x00, 0x00, 0x00, 0x00, 0x00, 0x00,
   0x00, 0x00, 0x00, 0x00, 0x00, 0x00, 0x00, 0x00, 0x00, 0x00, 0x00, 0x00,
   0x00, 0x00, 0x00, 0xff, 0xff, 0x00, 0x00, 0x00, 0x00, 0x00, 0x00, 0x00,
   0x00, 0x00, 0x00, 0x00, 0x00, 0x00, 0xfc, 0xff, 0xff, 0x3f, 0x00, 0x00,
   0x00, 0x00, 0x00, 0x00, 0x00, 0x00, 0x00, 0x00, 0x00, 0xc0, 0xff, 0xff,
   0xff, 0xff, 0x03, 0x00, 0x00, 0x00, 0x00, 0x00, 0x00, 0x00, 0x00, 0x00,
   0x00, 0xf8, 0xff, 0xff, 0xff, 0xff, 0x1f, 0x00, 0x00, 0x00, 0x00, 0x00,
   0x00, 0x00, 0x00, 0x00, 0x00, 0xff, 0x3f, 0xc0, 0x03, 0xfc, 0xff, 0x00,
   0x00, 0x00, 0x00, 0x00, 0x00, 0x00, 0x00, 0x00, 0xc0, 0xff, 0x01, 0xc0,
   0x03, 0x80, 0xff, 0x03, 0x00, 0x00, 0x00, 0x00, 0x00, 0x00, 0x00, 0x00,
   0xf0, 0x3f, 0x00, 0xc0, 0x03, 0x00, 0xf8, 0x0f, 0x00, 0x00, 0x00, 0x00,
   0x00, 0x00, 0x00, 0x00, 0xfc, 0x07, 0x00, 0xc0, 0x03, 0x00, 0xe0, 0x3f,
   0x00, 0x00, 0x00, 0x00, 0x00, 0x00, 0x00, 0x00, 0xff, 0x00, 0x00, 0xc0,
   0x03, 0x00, 0x00, 0xff, 0x00, 0x00, 0x00, 0x00, 0x00, 0x00, 0x00, 0xc0,
   0x3f, 0x00, 0x00, 0xc0, 0x03, 0x00, 0x00, 0xfc, 0x03, 0x00, 0x00, 0x00,
   0x00, 0x00, 0x00, 0xe0, 0x0f, 0x00, 0x00, 0xc0, 0x03, 0x00, 0x00, 0xf0,
   0x07, 0x00, 0x00, 0x00, 0x00, 0x00, 0x00, 0xf8, 0x03, 0x00, 0x00, 0xc0,
   0x01, 0x00, 0x00, 0xc0, 0x1f, 0x00, 0x00, 0x00, 0x00, 0x00, 0x00, 0xfc,
   0x01, 0x00, 0x00, 0xe8, 0x0f, 0x00, 0x00, 0x00, 0x3f, 0x00, 0x00, 0x00,
   0x00, 0x00, 0x00, 0x7e, 0x00, 0x00, 0xe0, 0xff, 0xff, 0x07, 0x00, 0x00,
   0x7e, 0x00, 0x00, 0x00, 0x00, 0x00, 0x80, 0x3f, 0x00, 0x00, 0xfe, 0xff,
   0xff, 0x7f, 0x00, 0x00, 0xf8, 0x01, 0x00, 0x00, 0x00, 0x00, 0xc0, 0x0f,
   0x00, 0xc0, 0xff, 0xff, 0xff, 0xff, 0x03, 0x00, 0xf0, 0x03, 0x00, 0x00,
   0x00, 0x00, 0xe0, 0x07, 0x00, 0xf0, 0xff, 0x55, 0xd5, 0xff, 0x1f, 0x00,
   0xe0, 0x07, 0x00, 0x00, 0x00, 0x00, 0xf0, 0x01, 0x00, 0xfe, 0xaf, 0xaa,
   0x2a, 0xf5, 0x7f, 0x00, 0xc0, 0x0f, 0x00, 0x00, 0x00, 0x00, 0xf8, 0x00,
   0x80, 0xff, 0x55, 0x55, 0x55, 0xd5, 0xff, 0x01, 0x00, 0x1f, 0x00, 0x00,
   0x00, 0x00, 0x7c, 0x00, 0xc0, 0x7f, 0x55, 0x49, 0x52, 0x15, 0xfd, 0x03,
   0x00, 0x3e, 0x00, 0x00, 0x00, 0x00, 0x7e, 0x00, 0xf0, 0x8f, 0x4a, 0x55,
   0x95, 0x6a, 0xf5, 0x0f, 0x00, 0x7e, 0x00, 0x00, 0x00, 0x00, 0xff, 0x00,
   0xfc, 0xb5, 0x54, 0x55, 0x55, 0x49, 0xd5, 0x1f, 0x00, 0xff, 0x00, 0x00,
   0x00, 0x80, 0xff, 0x01, 0xfe, 0x4a, 0x95, 0xaa, 0xaa, 0xaa, 0xa4, 0x7f,
   0x80, 0xff, 0x01, 0x00, 0x00, 0xc0, 0xe7, 0x03, 0xbf, 0xaa, 0xaa, 0xaa,
   0xaa, 0xaa, 0x2a, 0xfe, 0xc0, 0xe7, 0x03, 0x00, 0x00, 0xc0, 0xc3, 0x87,
   0x5f, 0x55, 0x55, 0x49, 0x92, 0x4a, 0xd5, 0xfc, 0xe3, 0xc3, 0x03, 0x00,
   0x00, 0xe0, 0x81, 0xef, 0xaf, 0xaa, 0x94, 0xaa, 0xaa, 0x54, 0x95, 0xf1,
   0xf3, 0xc1, 0x07, 0x00, 0x00, 0xf0, 0x01, 0xff, 0xab, 0x52, 0x55, 0x55,
   0x55, 0x55, 0x55, 0xd6, 0xff, 0x80, 0x0f, 0x00, 0x00, 0xf8, 0x00, 0xfe,
   0x2b, 0x95, 0xaa, 0xaa, 0xaa, 0x2a, 0xa9, 0xaa, 0x7f, 0x00, 0x1f, 0x00,
   0x00, 0x78, 0x00, 0xfc, 0x54, 0x55, 0x55, 0x12, 0x91, 0xaa, 0xaa, 0x54,
   0x3f, 0x00, 0x1e, 0x00, 0x00, 0x7c, 0x00, 0xfe, 0xaa, 0xaa, 0x94, 0x52,
   0x92, 0xa8, 0xaa, 0xaa, 0x7e, 0x00, 0x3e, 0x00, 0x00, 0x3e, 0x00, 0x3e,
   0x55, 0x55, 0x25, 0x44, 0x25, 0xa5, 0x52, 0x55, 0x7d, 0x00, 0x7c, 0x00,
   0x00, 0x1e, 0x00, 0xbf, 0x52, 0x52, 0x49, 0x15, 0x24, 0x89, 0xaa, 0x92,
   0xfa, 0x00, 0x78, 0x00, 0x00, 0x0f, 0x80, 0x4f, 0x55, 0x95, 0x52, 0xa8,
   0x92, 0x54, 0x4a, 0x55, 0xf5, 0x00, 0xf0, 0x00, 0x00, 0x0f, 0xc0, 0x57,
   0xa5, 0x2a, 0x8a, 0x82, 0x24, 0x81, 0x54, 0xaa, 0x6a, 0x00, 0xf0, 0x00,
   0x80, 0x07, 0xc0, 0x97, 0xaa, 0xaa, 0x50, 0x5a, 0x4a, 0x5a, 0x52, 0x55,
   0x55, 0x00, 0xe0, 0x01, 0x80, 0x07, 0xe0, 0xab, 0xaa, 0x8a, 0x4a, 0x41,
   0x91, 0x92, 0x54, 0x95, 0x54, 0x00, 0xe0, 0x01, 0xc0, 0x03, 0xf0, 0x55,
   0x95, 0x24, 0x11, 0x2a, 0x4a, 0x24, 0xa1, 0xaa, 0xaa, 0x00, 0xc0, 0x03,
   0xc0, 0x03, 0xf0, 0x95, 0x54, 0x29, 0x55, 0x49, 0x49, 0x49, 0x0a, 0xa9,
   0xaa, 0x0d, 0xc0, 0x03, 0xe0, 0x01, 0x78, 0xaa, 0xaa, 0xa2, 0x20, 0x12,
   0x12, 0x91, 0x52, 0x55, 0x49, 0x1e, 0x80, 0x07, 0xe0, 0x01, 0x7c, 0x55,
   0x55, 0x8a, 0xaa, 0xa4, 0x24, 0x55, 0x24, 0xa5, 0xaa, 0x1e, 0x80, 0x07,
   0xf0, 0x00, 0x7c, 0xa9, 0x92, 0x24, 0x41, 0x11, 0x48, 0x82, 0x92, 0x54,
   0x55, 0x3d, 0x00, 0x0f, 0xf0, 0x00, 0xbe, 0xaa, 0x2a, 0x49, 0x16, 0x22,
   0x01, 0xaa, 0x24, 0x55, 0x55, 0x7d, 0x00, 0x0f, 0xf0, 0x00, 0x5e, 0x25,
   0x55, 0x92, 0x48, 0x00, 0x94, 0x08, 0x49, 0x48, 0xaa, 0x7a, 0x00, 0x0f,
   0x78, 0x00, 0x5f, 0x55, 0x95, 0x24, 0x09, 0x92, 0x00, 0x50, 0x92, 0xaa,
   0xaa, 0xfa, 0x00, 0x1e, 0x78, 0x00, 0xaf, 0xaa, 0x22, 0x49, 0x21, 0xe8,
   0x9f, 0x40, 0x25, 0x51, 0x49, 0xf5, 0x00, 0x1e, 0x38, 0x00, 0x2f, 0x55,
   0x4d, 0x12, 0x45, 0xff, 0xff, 0x0a, 0x48, 0x55, 0x55, 0xf5, 0x00, 0x1c,
   0x3c, 0x80, 0xaf, 0x2a, 0xa5, 0x54, 0x80, 0xff, 0xff, 0xa1, 0x12, 0xa2,
   0xaa, 0xea, 0x01, 0x3c, 0x3c, 0x80, 0xaf, 0x52, 0x15, 0x45, 0xe9, 0xff,
   0xff, 0x07, 0x54, 0x8a, 0x4a, 0xea, 0x01, 0x3c, 0x3c, 0x80, 0x57, 0x55,
   0xa2, 0x28, 0xf0, 0x07, 0xe0, 0x4f, 0x91, 0xa8, 0xaa, 0xea, 0x01, 0x3c,
   0x1c, 0xc0, 0x53, 0xaa, 0x2a, 0x09, 0xf9, 0x01, 0x80, 0x1f, 0xa4, 0x92,
   0x54, 0xd5, 0x03, 0x38, 0x1e, 0xc0, 0x57, 0x55, 0x41, 0x12, 0xfc, 0x00,
   0x00, 0x3f, 0x11, 0x49, 0x55, 0xd5, 0x03, 0x78, 0x1e, 0xc0, 0x57, 0x55,
   0x95, 0x52, 0x3e, 0x00, 0x00, 0x7c, 0x50, 0x52, 0x55, 0xd5, 0x03, 0x78,
   0x1e, 0xe0, 0x49, 0xa9, 0x4a, 0x04, 0x1f, 0x00, 0x00, 0x78, 0x21, 0x89,
   0x92, 0xaa, 0x07, 0x78, 0x0e, 0xe0, 0xab, 0x2a, 0x51, 0x09, 0x1f, 0x00,
   0x00, 0xf8, 0x44, 0x52, 0xaa, 0xd4, 0x07, 0x78, 0x0e, 0xe0, 0x55, 0xa5,
   0x8a, 0x24, 0x0f, 0x00, 0x00, 0xf0, 0x91, 0x84, 0xaa, 0xaa, 0x07, 0x70,
   0x0e, 0xe0, 0x55, 0x55, 0x91, 0x84, 0x07, 0x00, 0x00, 0xe0, 0x21, 0xa9,
   0xaa, 0xaa, 0x07, 0x70, 0x0f, 0xe0, 0x25, 0x55, 0x2a, 0x91, 0x07, 0x00,
   0x00, 0xe0, 0x45, 0x0a, 0x55, 0xa9, 0x07, 0xf0, 0x0f, 0xe0, 0xaa, 0xaa,
   0x42, 0xa2, 0x03, 0x00, 0x00, 0xc0, 0x83, 0x52, 0x92, 0xaa, 0x07, 0xf0,
   0x0f, 0xf0, 0x55, 0xa5, 0x94, 0xc0, 0x03, 0x00, 0x00, 0xc0, 0x53, 0xa4,
   0xaa, 0x52, 0x0f, 0xf0, 0x0f, 0xf0, 0x55, 0xaa, 0xa4, 0xca, 0x03, 0x00,
   0x00, 0xc0, 0x83, 0x14, 0xaa, 0xaa, 0x0f, 0xf0, 0x0f, 0xf0, 0xaa, 0xaa,
   0x12, 0xc1, 0x03, 0x00, 0x00, 0xc0, 0x93, 0xa2, 0x55, 0x55, 0x0f, 0xf0,
   0x0f, 0xf0, 0x4a, 0x95, 0x54, 0xca, 0x03, 0x00, 0x00, 0xc0, 0x03, 0x2a,
   0x94, 0x4a, 0x0f, 0xf0, 0xff, 0xf7, 0xaa, 0xaa, 0x22, 0xc1, 0x03, 0x00,
   0x00, 0xc0, 0x4b, 0x41, 0x53, 0x55, 0xff, 0xff, 0xff, 0xff, 0x2a, 0xa9,
   0x24, 0xc9, 0x03, 0x00, 0x00, 0xc0, 0x0b, 0x55, 0xaa, 0x54, 0xff, 0xff,
   0xff, 0xff, 0xaa, 0x2a, 0x49, 0xc2, 0x03, 0x00, 0x00, 0xc0, 0xa3, 0x84,
   0xaa, 0xaa, 0xff, 0xff, 0xff, 0xff, 0xaa, 0xaa, 0x92, 0xc8, 0x03, 0x00,
   0x00, 0xc0, 0x83, 0x54, 0x4a, 0x55, 0xff, 0xff, 0x0f, 0xf0, 0xaa, 0x52,
   0x4a, 0xe1, 0x03, 0x00, 0x00, 0xc0, 0x4b, 0x92, 0xaa, 0x52, 0x0f, 0xe0,
   0x07, 0xf0, 0xa9, 0xaa, 0x28, 0xc2, 0x03, 0x00, 0x00, 0xc0, 0x83, 0x44,
   0x2a, 0x55, 0x0f, 0xf0, 0x0f, 0xf0, 0x4a, 0x55, 0x45, 0xc9, 0x03, 0x00,
   0x00, 0xc0, 0x13, 0x29, 0x55, 0x55, 0x0f, 0xe0, 0x0f, 0x60, 0x55, 0xaa,
   0x48, 0xc2, 0x03, 0x00, 0x00, 0xc0, 0x43, 0x49, 0x55, 0xa5, 0x0f, 0xf0,
   0x0f, 0x80, 0xaa, 0x52, 0x95, 0xc8, 0x03, 0x00, 0x00, 0xc0, 0x0b, 0x25,
   0xaa, 0x2a, 0x0f, 0xe0, 0x07, 0x80, 0xaa, 0x4a, 0x91, 0xc2, 0x03, 0x00,
   0x00, 0xc0, 0x43, 0xa4, 0x92, 0xaa, 0x0f, 0xf0, 0x0f, 0x80, 0x54, 0x55,
   0x4a, 0xc8, 0xff, 0xff, 0xff, 0xff, 0x8b, 0x12, 0x55, 0x55, 0x0f, 0xe0,
   0x0f, 0x40, 0x95, 0xaa, 0x48, 0xd1, 0xff, 0xff, 0xff, 0xff, 0x43, 0x52,
   0xaa, 0x54, 0x0f, 0xf0, 0x07, 0xc0, 0x52, 0x55, 0x25, 0xe1, 0xff, 0xff,
   0xff, 0xff, 0x8f, 0x24, 0x55, 0x55, 0x0f, 0xe0, 0x0f, 0xf0, 0x55, 0x55,
   0x49, 0xf5, 0xff, 0xff, 0xff, 0xff, 0x1f, 0x49, 0x55, 0x55, 0x0f, 0xf0,
   0x0f, 0xf0, 0x2a, 0x29, 0x12, 0xfa, 0x00, 0x00, 0x00, 0x00, 0x5f, 0x12,
   0x49, 0xa9, 0x0f, 0xe0, 0x0f, 0xf0, 0x55, 0xd5, 0xa4, 0x7c, 0x00, 0x00,
   0x00, 0x00, 0xbe, 0x52, 0x55, 0x55, 0x0f, 0xf0, 0x07, 0xf0, 0xaa, 0x2a,
   0x29, 0x3f, 0x00, 0x00, 0x00, 0x00, 0x7c, 0x24, 0x55, 0xa5, 0x0f, 0xe0,
   0x0f, 0xf0, 0xa9, 0x52, 0x45, 0x1f, 0x00, 0x00, 0x00, 0x00, 0xf8, 0x25,
   0x55, 0x55, 0x0f, 0xf0, 0x0f, 0xf0, 0x4a, 0x55, 0x94, 0x0f, 0x00, 0x80,
   0x03, 0x00, 0xf0, 0x49, 0x4a, 0xaa, 0x0f, 0xe0, 0x0f, 0xf0, 0xaa, 0xaa,
   0xd1, 0x07, 0x00, 0xc0, 0x03, 0x00, 0xe0, 0x93, 0xaa, 0x2a, 0x0f, 0xf0,
   0x07, 0xf0, 0x55, 0x2a, 0xea, 0x03, 0x00, 0x80, 0x01, 0x00, 0xc0, 0x27,
   0x55, 0xa5, 0x0f, 0xe0, 0x0f, 0xf0, 0xaa, 0xd2, 0xf2, 0x01, 0x00, 0x00,
   0x00, 0x00, 0xc0, 0x4f, 0x54, 0x55, 0x0f, 0xf0, 0x0f, 0xf0, 0x52, 0x15,
   0xfc, 0x01, 0x00, 0x00, 0x00, 0x00, 0x80, 0x5f, 0xa5, 0xaa, 0x0f, 0xe0,
   0x0f, 0xf0, 0xaa, 0xea, 0xfc, 0x00, 0x00, 0x00, 0x00, 0x00, 0x00, 0xbf,
   0xaa, 0x54, 0x0f, 0xf0, 0x07, 0xf0, 0x55, 0x95, 0x7e, 0x00, 0x00, 0x00,
   0x01, 0x00, 0x00, 0x7c, 0x4a, 0xa5, 0x0f, 0xe0, 0x0f, 0xf0, 0x4a, 0xaa,
   0x3e, 0x00, 0x00, 0xc0, 0x03, 0x00, 0x00, 0xfc, 0xaa, 0x2a, 0x0f, 0xf0,
   0x0f, 0xf0, 0x55, 0x55, 0x1f, 0x00, 0x00, 0xc0, 0x03, 0x00, 0x00, 0xf8,
   0x55, 0xd5, 0x0f, 0xe0, 0x0f, 0xf0, 0x54, 0xd5, 0x0f, 0x00, 0x00, 0xc0,
   0x03, 0x00, 0x00, 0xf0, 0x95, 0x2a, 0x0f, 0xf0, 0x07, 0xf0, 0x55, 0xe9,
   0x07, 0x00, 0x00, 0x80, 0x03, 0x00, 0x00, 0xe0, 0x57, 0x55, 0x0f, 0xe0,
   0x0f, 0xf0, 0x95, 0xea, 0x03, 0x00, 0x00, 0x80, 0x01, 0x00, 0x00, 0xc0,
   0xaf, 0xa4, 0x0f, 0xf0, 0x0f, 0xf0, 0xaa, 0xfa, 0x01, 0x00, 0x00, 0x00,
   0x00, 0x00, 0x00, 0x80, 0x5f, 0x55, 0x0f, 0xe0, 0x0f, 0xf0, 0xa9, 0xfa,
   0x00, 0x00, 0x00, 0x00, 0x00, 0x00, 0x00, 0x00, 0x5f, 0x55, 0x0f, 0xf0,
   0x07, 0xf0, 0xaa, 0x7e, 0x00, 0x00, 0x00, 0x00, 0x00, 0x00, 0x00, 0x00,
   0xbe, 0xaa, 0x0f, 0xe0, 0x0f, 0xf0, 0xaa, 0x3e, 0x00, 0x00, 0x00, 0x00,
   0x00, 0x00, 0x00, 0x00, 0xfc, 0x52, 0x0f, 0xf0, 0x0f, 0xf0, 0xa5, 0x1f,
   0x00, 0x00, 0x00, 0x00, 0x01, 0x00, 0x00, 0x00, 0xf8, 0xaa, 0x0f, 0xe0,
   0x0f, 0xf0, 0xaa, 0x0f, 0x00, 0x00, 0x00, 0x80, 0x03, 0x00, 0x00, 0x00,
   0xf0, 0x2b, 0x0f, 0xf0, 0x07, 0xf0, 0xca, 0x07, 0x00, 0x00, 0x00, 0xc0,
   0x03, 0x00, 0x00, 0x00, 0xe0, 0xab, 0x0f, 0xe0, 0x0f, 0xf0, 0xf5, 0x03,
   0x00, 0x00, 0x00, 0xc0, 0x03, 0x00, 0x00, 0x00, 0xc0, 0x57, 0x0f, 0xf0,
   0x0f, 0xf0, 0xfa, 0x03, 0x00, 0x00, 0x00, 0xc0, 0x03, 0x00, 0x00, 0x00,
   0x80, 0xaf, 0x0f, 0xe0, 0x0f, 0xf0, 0xf9, 0x00, 0x00, 0x00, 0x00, 0xc0,
   0x03, 0x00, 0x00, 0x00, 0x80, 0x5f, 0x0f, 0xf0, 0x07, 0xf0, 0xfe, 0x00,
   0x00, 0x00, 0x00, 0xc0, 0x03, 0x00, 0x00, 0x00, 0x00, 0xbf, 0x0f, 0xe0,
   0x0f, 0xf0, 0x3e, 0x00, 0x00, 0x00, 0x00, 0x80, 0x01, 0x00, 0x00, 0x00,
   0x00, 0x7e, 0x0f, 0xf0, 0x0f, 0xf0, 0x3f, 0x00, 0x00, 0x00, 0x00, 0x00,
   0x00, 0x00, 0x00, 0x00, 0x00, 0xf8, 0x0f, 0xe0, 0x0f, 0xf0, 0x1f, 0x00,
   0x00, 0x00, 0x00, 0x00, 0x00, 0x00, 0x00, 0x00, 0x00, 0xf8, 0x0f, 0xf0,
   0x07, 0xf0, 0x0f, 0x00, 0x00, 0x00, 0x00, 0x00, 0x00, 0x00, 0x00, 0x00,
   0x00, 0xf0, 0x0f, 0xe0, 0x0f, 0xf0, 0x07, 0x00, 0x00, 0x00, 0x00, 0x00,
   0x00, 0x00, 0x00, 0x00, 0x00, 0xe0, 0x0f, 0xf0, 0xdf, 0xfa, 0x57, 0xab,
   0xaa, 0xaa, 0xaa, 0xaa, 0xb6, 0x6a, 0x55, 0x55, 0x55, 0xf5, 0x5f, 0xf5,
   0xff, 0xff, 0xff, 0xff, 0xff, 0xff, 0xff, 0xff, 0xff, 0xff, 0xff, 0xff,
   0xff, 0xff, 0xff, 0xff, 0xff, 0xff, 0xff, 0xff, 0xff, 0xff, 0xff, 0xff,
   0xff, 0xff, 0xff, 0xff, 0xff, 0xff, 0xff, 0xff, 0xfe, 0xff, 0xff, 0xff,
   0xff, 0xff, 0xff, 0xff, 0xff, 0xff, 0xff, 0xff, 0xff, 0xff, 0xff, 0x7f,
   0x00, 0x00, 0x00, 0x00, 0x00, 0x00, 0x00, 0x00, 0x00, 0x00, 0x00, 0x00,
   0x00, 0x00, 0x00, 0x00, 0x00, 0x00, 0x00, 0x00, 0x00, 0x00, 0x00, 0x00,
   0x00, 0x00, 0x00, 0x00, 0x00, 0x00, 0x00, 0x00, 0x00, 0x00, 0x00, 0x00,
   0x00, 0x00, 0x00, 0x00, 0x00, 0x00, 0x00, 0x00, 0x00, 0x00, 0x00, 0x00,
   0x00, 0x00, 0x00, 0x00, 0x00, 0x00, 0x00, 0x00, 0x00, 0x00, 0x00, 0x00,
   0x00, 0x00, 0x00, 0x00, 0x00, 0x00, 0x00, 0x00, 0x00, 0x00, 0x00, 0x00,
   0x00, 0x00, 0x00, 0x00, 0x00, 0x00, 0x00, 0x00, 0x00, 0x00, 0x00, 0x00,
   0x00, 0x00, 0x00, 0x00, 0x00, 0x00, 0x00, 0x00, 0x00, 0x00, 0x00, 0x00,
   0x00, 0x00, 0x00, 0x00, 0x00, 0x00, 0x00, 0x00, 0x00, 0x00, 0x00, 0x00,
   0x00, 0x00, 0x00, 0x00, 0x00, 0x00, 0x00, 0x00, 0x00, 0x00, 0x00, 0x00,
   0x00, 0x00, 0x00, 0x00, 0x00, 0x00, 0x00, 0x00 };
